# 3ds Max Wavefront OBJ Exporter v0.97b - (c)2007 guruware
# 创建的文件:18.05.2015 08:04:18

mtllib file.mtl

#
# object obj_01
#

v  -43.9917 33.4857 -21.4912
v  43.9918 33.4857 -21.4912
v  43.9918 31.6432 -21.4912
v  -43.9917 31.6432 -21.4912
v  -44.0705 33.4857 21.4125
v  -44.0705 33.4857 -21.4125
v  -44.0705 31.6432 -21.4125
v  -44.0705 31.6432 21.4125
v  43.9917 33.4857 21.4912
v  -43.9917 33.4857 21.4912
v  -43.9917 31.6432 21.4912
v  43.9917 31.6432 21.4912
v  44.0705 33.4857 -21.4124
v  44.0705 33.4857 21.4125
v  44.0705 31.6432 21.4125
v  44.0705 31.6432 -21.4124
v  -43.9917 31.5644 21.4125
v  -43.9917 31.5644 -21.4125
v  43.9918 31.5644 -21.4124
v  43.9917 31.5644 21.4125
v  43.9918 33.5644 -21.4124
v  -43.9917 33.5644 -21.4125
v  -43.9917 33.5644 21.4125
v  43.9917 33.5644 21.4125
# 24 vertices

vn 0.0000 0.0000 -1.0000
vn -1.0000 0.0000 -0.0000
vn -0.0000 0.0000 1.0000
vn 1.0000 0.0000 0.0000
vn 0.0000 -1.0000 -0.0000
vn 0.0000 1.0000 -0.0000
vn 0.5774 -0.5774 -0.5773
vn -0.5774 -0.5774 -0.5773
vn -0.5774 -0.5774 0.5773
vn 0.5774 -0.5774 0.5773
vn 0.5774 0.5774 -0.5773
vn -0.5774 0.5774 -0.5773
vn -0.5774 0.5774 0.5773
vn 0.5774 0.5774 0.5773
vn 0.0000 -0.7071 -0.7071
vn -0.7071 0.0000 -0.7071
vn 0.0000 0.7071 -0.7071
vn 0.7071 0.0000 -0.7071
vn -0.7071 -0.7071 -0.0000
vn -0.7071 0.0000 0.7071
vn -0.7071 0.7071 -0.0000
vn -0.0000 -0.7071 0.7071
vn 0.7071 0.0000 0.7071
vn -0.0000 0.7071 0.7071
vn 0.7071 -0.7071 0.0000
vn 0.7071 0.7071 0.0000
# 26 vertex normals

vt 0.8946 0.5272 0.8753
vt 0.1054 0.5272 0.8753
vt 0.1054 0.4728 0.8753
vt 0.8946 0.4728 0.8753
vt 0.8739 0.5272 0.1047
vt 0.1261 0.5272 0.1047
vt 0.1261 0.4728 0.1047
vt 0.8739 0.4728 0.1047
vt 0.8946 0.5272 0.1247
vt 0.1054 0.5272 0.1247
vt 0.1054 0.4728 0.1247
vt 0.8946 0.4728 0.1247
vt 0.8739 0.5272 0.8953
vt 0.1261 0.5272 0.8953
vt 0.1261 0.4728 0.8953
vt 0.8739 0.4728 0.8953
vt 0.8946 0.1261 0.4705
vt 0.8946 0.8739 0.4705
vt 0.1054 0.8739 0.4705
vt 0.1054 0.1261 0.4705
vt 0.8946 0.8739 0.5295
vt 0.1054 0.8739 0.5295
vt 0.1054 0.1261 0.5295
vt 0.8946 0.1261 0.5295
vt 0.1054 0.8753 0.4728
vt 0.1047 0.8739 0.4728
vt 0.8953 0.8739 0.4728
vt 0.8946 0.8753 0.4728
vt 0.8946 0.1247 0.4728
vt 0.8953 0.1261 0.4728
vt 0.1047 0.1261 0.4728
vt 0.1054 0.1247 0.4728
vt 0.8946 0.8753 0.5272
vt 0.8953 0.8739 0.5272
vt 0.1047 0.8739 0.5272
vt 0.1054 0.8753 0.5272
vt 0.1054 0.1247 0.5272
vt 0.1047 0.1261 0.5272
vt 0.8953 0.1261 0.5272
vt 0.8946 0.1247 0.5272
vt 0.8953 0.4728 0.8739
vt 0.8953 0.5272 0.8739
vt 0.1047 0.5272 0.8739
vt 0.1047 0.4728 0.8739
vt 0.1047 0.4728 0.1261
vt 0.1047 0.5272 0.1261
vt 0.8953 0.4728 0.1261
vt 0.8953 0.5272 0.1261
# 48 texture coords

g obj_01
usemtl 01___Default
s 1
f 1/1/1 2/2/1 3/3/1 4/4/1 
s 4
f 5/5/2 6/6/2 7/7/2 8/8/2 
s 2
f 9/9/3 10/10/3 11/11/3 12/12/3 
s 4
f 13/13/4 14/14/4 15/15/4 16/16/4 
s 16
f 17/17/5 18/18/5 19/19/5 20/20/5 
f 21/21/6 22/22/6 23/23/6 24/24/6 
s off
f 3/25/7 16/26/7 19/19/7 
f 18/18/8 7/27/8 4/28/8 
f 17/17/9 11/29/9 8/30/9 
f 15/31/10 12/32/10 20/20/10 
f 2/33/11 21/21/11 13/34/11 
f 6/35/12 22/22/12 1/36/12 
f 10/37/13 23/23/13 5/38/13 
f 14/39/14 24/24/14 9/40/14 
f 3/25/15 19/19/15 18/18/15 4/28/15 
f 4/4/16 7/41/16 6/42/16 1/1/16 
f 1/36/17 22/22/17 21/21/17 2/33/17 
f 2/2/18 13/43/18 16/44/18 3/3/18 
f 7/27/19 18/18/19 17/17/19 8/30/19 
f 8/45/20 11/11/20 10/10/20 5/46/20 
f 5/38/21 23/23/21 22/22/21 6/35/21 
f 11/29/22 17/17/22 20/20/22 12/32/22 
f 12/12/23 15/47/23 14/48/23 9/9/23 
f 9/40/24 24/24/24 23/23/24 10/37/24 
f 15/31/25 20/20/25 19/19/25 16/26/25 
f 13/34/26 21/21/26 24/24/26 14/39/26 
# 18 polygons - 8 triangles